<svg xmlns="http://www.w3.org/2000/svg" width="24" height="24" viewBox="0 0 24 24" fill="none">
  <path d="M12 1C5.925 1 1 5.925 1 12s4.925 11 11 11 11-4.925 11-11S18.075 1 12 1z" fill="currentColor" fill-opacity="0.1"/>
  <path d="M8.75 16.5V23h2.5v-6.5a1.25 1.25 0 0 1 2.5 0V23h2.5v-6.5a3.75 3.75 0 0 0-7.5 0z" fill="currentColor"/>
  <circle cx="12" cy="10" r="3" fill="currentColor"/>
  <path d="M12 3a7 7 0 0 0-5.5 11.24" stroke="currentColor" stroke-width="2" stroke-linecap="round" fill="none"/>
  <path d="M12 3a7 7 0 0 1 5.5 11.24" stroke="currentColor" stroke-width="2" stroke-linecap="round" fill="none"/>
  <path d="M12 6a4 4 0 0 0-3.13 6.5" stroke="currentColor" stroke-width="2" stroke-linecap="round" fill="none"/>
  <path d="M12 6a4 4 0 0 1 3.13 6.5" stroke="currentColor" stroke-width="2" stroke-linecap="round" fill="none"/>
</svg>
